<svg xmlns="http://www.w3.org/2000/svg" xmlns:xlink="http://www.w3.org/1999/xlink" x="0px" y="0px" width="24px" height="24px" viewBox="0 0 24 24"><path d="M9 15H15" stroke="currentColor" stroke-width="2" stroke-linecap="square" fill="none"></path> <path d="M10 11.01L10 11" stroke="currentColor" stroke-width="2" stroke-linecap="square" fill="none"></path> <path d="M9 17.01L9 17" stroke="currentColor" stroke-width="2" stroke-linecap="square" fill="none"></path> <path d="M11 19.01L11 19" stroke="currentColor" stroke-width="2" stroke-linecap="square" fill="none"></path> <path d="M15 17.01L15 17" stroke="currentColor" stroke-width="2" stroke-linecap="square" fill="none"></path> <path d="M13 19.01L13 19" stroke="currentColor" stroke-width="2" stroke-linecap="square" fill="none"></path> <path d="M14 11.01L14 11" stroke="currentColor" stroke-width="2" stroke-linecap="square" fill="none"></path> <path d="M16 9.01001L16 9.00001" stroke="currentColor" stroke-width="2" stroke-linecap="square" fill="none"></path> <path d="M18 11.01L18 11" stroke="currentColor" stroke-width="2" stroke-linecap="square" fill="none"></path> <path d="M8 9.01001L8 9.00001" stroke="currentColor" stroke-width="2" stroke-linecap="square" fill="none"></path> <path d="M6 11.01L6 11" stroke="currentColor" stroke-width="2" stroke-linecap="square" fill="none"></path> <path d="M4 6L4 6.01" stroke="currentColor" stroke-width="2" stroke-linecap="square" data-color="color-2" fill="none"></path> <path d="M6 4L6 4.01" stroke="currentColor" stroke-width="2" stroke-linecap="square" data-color="color-2" fill="none"></path> <path d="M20.01 6L20 6" stroke="currentColor" stroke-width="2" stroke-linecap="square" data-color="color-2" fill="none"></path> <path d="M18.01 4L18 4" stroke="currentColor" stroke-width="2" stroke-linecap="square" data-color="color-2" fill="none"></path> <path d="M20.01 18L20 18" stroke="currentColor" stroke-width="2" stroke-linecap="square" data-color="color-2" fill="none"></path> <path d="M18.01 20L18 20" stroke="currentColor" stroke-width="2" stroke-linecap="square" data-color="color-2" fill="none"></path> <path d="M6.01001 20L6.00001 20" stroke="currentColor" stroke-width="2" stroke-linecap="square" data-color="color-2" fill="none"></path> <path d="M4.01001 18L4.00001 18" stroke="currentColor" stroke-width="2" stroke-linecap="square" data-color="color-2" fill="none"></path> <path d="M22 8L22 16" stroke="currentColor" stroke-width="2" stroke-linecap="square" data-color="color-2" fill="none"></path> <path d="M2 8L2 16" stroke="currentColor" stroke-width="2" stroke-linecap="square" data-color="color-2" fill="none"></path> <path d="M8 2L16 2" stroke="currentColor" stroke-width="2" stroke-linecap="square" data-color="color-2" fill="none"></path> <path d="M8 22L16 22" stroke="currentColor" stroke-width="2" stroke-linecap="square" data-color="color-2" fill="none"></path> <path d="M9.99999 5L10 4" stroke="currentColor" stroke-width="2" stroke-linecap="square" data-color="color-2" fill="none"></path> <path d="M12 7.00001L12 7.01001" stroke="currentColor" stroke-width="2" stroke-linecap="square" data-color="color-2" fill="none"></path> <path d="M14 5.00001L14 5.01001" stroke="currentColor" stroke-width="2" stroke-linecap="square" data-color="color-2" fill="none"></path></svg>